<?xml version="1.0" encoding="iso-8859-1"?>
<!-- Generator: Adobe Illustrator 19.0.0, SVG Export Plug-In . SVG Version: 6.00 Build 0)  -->
<svg version="1.1" xmlns="http://www.w3.org/2000/svg" xmlns:xlink="http://www.w3.org/1999/xlink" x="0px" y="0px"
	 viewBox="0 0 500 500" style="enable-background:new 0 0 500 500;" xml:space="preserve">
<g id="BACKGROUND">
	<rect style="fill:#F2E9D7;" width="500" height="500"/>
</g>
<g id="OBJECTS">
	<g>
		<path style="fill:#DBCCB6;" d="M385.638,190.206c-19.538-33.383-49.937-56.459-84.089-67.388c2.936,2.627,1.861,8.848-3.215,8.848
			c-6.284,0-6.428-9.502-0.468-9.977c-38.405-11.222-81.17-7.228-118.427,14.576c-28.878,16.901-50.052,41.934-62.319,70.496
			l-0.003,0.01c-0.272,0.267-6.859,6.646-9.76-3.279c-2.959-10.132-15.521-7.203-13.545,0.238
			c1.153,4.341,4.627,3.546,11.255,10.086c5.244,5.165,4.839,13.099,4.014,17.07c-0.188,0.913-0.346,1.496-0.385,1.644l0.001,0.017
			c-0.003,0.01-0.009,0.014-0.009,0.014c-8.317,36.134-3.402,75.381,16.8,109.9c42.046,71.842,134.368,95.989,206.203,53.947
			C403.526,354.367,427.684,262.048,385.638,190.206z"/>
		<path style="fill:#DBCCB6;" d="M145.862,162.998c0-0.008,0.008-0.015,0.023-0.023l-0.008,0.016
			C145.87,162.998,145.862,162.998,145.862,162.998z"/>
		<path style="fill:#DBCCB6;" d="M147.048,161.751c-0.624,0.693-1.055,1.116-1.162,1.224
			C146.271,162.567,146.655,162.159,147.048,161.751z"/>
		<path style="fill:#DBCCB6;" d="M390.894,72.617h-69.676c0,0,3.058-19.653,11.678-18.888c2.383,0.21,4.008,2.631,5.07,5.224
			c0.655,1.601,2.945,1.487,3.419-0.174c2.279-7.988,6.942-20.178,14.169-20.178c7.473,0,7.721,13.948,7.18,22.441
			c-0.08,1.28,1.578,1.848,2.296,0.789c1.972-2.901,4.85-5.689,8.349-4.88c2.989,0.69,4.313,3.788,4.859,7.05
			c0.164,0.98,1.522,1.107,1.872,0.177c1.82-4.838,5.049-11.874,8.477-12.021C393.825,51.934,390.894,72.617,390.894,72.617z"/>
		<path style="fill:#DBCCB6;" d="M99.937,177.215H30.261c0,0,3.059-19.653,11.679-18.888c2.383,0.211,4.007,2.631,5.07,5.224
			c0.655,1.601,2.945,1.487,3.419-0.174c2.28-7.988,6.942-20.178,14.169-20.178c7.473,0,7.721,13.948,7.179,22.441
			c-0.08,1.28,1.578,1.849,2.296,0.789c1.972-2.901,4.85-5.689,8.349-4.88c2.989,0.69,4.314,3.789,4.859,7.051
			c0.164,0.98,1.522,1.107,1.871,0.177c1.82-4.838,5.049-11.874,8.477-12.021C102.869,156.532,99.937,177.215,99.937,177.215z"/>
		<path style="fill:#DBCCB6;" d="M94.231,70.714c0,0,2.718-17.456,10.372-16.776c2.118,0.188,3.559,2.335,4.503,4.64
			c0.582,1.42,2.615,1.32,3.037-0.155c2.025-7.093,6.167-17.92,12.585-17.92c6.639,0,6.858,12.387,6.376,19.931
			c-0.072,1.136,1.4,1.641,2.04,0.699c1.751-2.577,4.306-5.051,7.414-4.334c6.053,1.397,4.423,13.915,4.423,13.915H94.231z"/>
		<path style="fill:#DBCCB6;" d="M29.529,281.443c0,0,2.718-17.456,10.372-16.776c2.118,0.188,3.559,2.335,4.503,4.64
			c0.582,1.42,2.615,1.32,3.037-0.155c2.025-7.093,6.167-17.92,12.585-17.92c6.639,0,6.858,12.387,6.376,19.931
			c-0.072,1.137,1.4,1.641,2.04,0.699c1.751-2.577,4.306-5.051,7.414-4.334c6.053,1.397,4.423,13.915,4.423,13.915H29.529z"/>
		<path style="fill:#DBCCB6;" d="M411.393,169.192c0,0,2.718-17.456,10.372-16.776c2.118,0.188,3.559,2.335,4.503,4.64
			c0.582,1.421,2.615,1.321,3.037-0.155c2.025-7.093,6.167-17.92,12.585-17.92c6.638,0,6.858,12.387,6.376,19.931
			c-0.073,1.136,1.4,1.641,2.04,0.699c1.751-2.577,4.306-5.051,7.414-4.334c6.053,1.397,4.423,13.915,4.423,13.915H411.393z"/>
		<path style="fill:#DBCCB6;" d="M250.538,95.628c0,0-23.34,0.305-22.14,10.002c1.2,9.698,14.683-4.117,27.389-0.751
			C268.494,108.246,270.408,94.779,250.538,95.628z"/>
		<path style="fill:#DBCCB6;" d="M333.456,112.405c-0.898-1.623-2.638-2.598-4.49-2.694c-3.673-0.19-10.639,0.607-10.686,9.377
			C318.222,129.842,337.774,120.211,333.456,112.405z"/>
		<path style="fill:#DBCCB6;" d="M279.938,103.578c-0.124-0.878-0.733-1.61-1.544-1.969c-1.607-0.712-4.851-1.546-6.37,2.359
			C270.162,108.758,280.531,107.799,279.938,103.578z"/>
		<path style="fill:#DBCCB6;" d="M427.935,263.264c0,0,1.967,23.259-7.801,23.008s2.669-15.014-1.917-27.332
			C413.631,246.621,426.848,243.406,427.935,263.264z"/>
		<path style="fill:#DBCCB6;" d="M417.812,233.422c0.885,0.038,1.674,0.573,2.11,1.345c0.865,1.53,2.01,4.678-1.728,6.569
			C413.608,243.655,413.554,233.242,417.812,233.422z"/>
		<path style="fill:#DBCCB6;" d="M358.896,404.087c0,0,20.687-10.811,15.237-18.922c-5.449-8.111-11.242,10.303-24.099,13.038
			C337.178,400.938,341.551,413.818,358.896,404.087z"/>
	</g>
	<g>
		<g>
			<g>
				<path style="fill:#7D9F21;" d="M175.437,231.714c0.366,0.809,0.53,1.275,0.53,1.275s-0.114,0.191-0.337,0.544
					c-2.799,4.408-22.779,34.038-51.292,29.053c-0.431-0.075-0.865-0.158-1.299-0.249c-0.198-0.041-0.396-0.083-0.593-0.127
					c-8.833-1.927-16.835-5.27-23.769-9.074c-0.537-0.294-1.066-0.59-1.588-0.89c-13.08-7.474-22.097-16.386-25.331-19.827
					c-0.869-0.925-1.32-1.455-1.32-1.455c0.175-0.11,0.349-0.219,0.523-0.327c15.036-9.391,28.035-15.402,39.245-18.927
					c0.627-0.199,1.249-0.388,1.866-0.57c12.724-3.758,23.08-4.268,31.456-2.92c0.819,0.132,1.62,0.282,2.403,0.447
					C165.512,212.827,173.445,227.317,175.437,231.714z"/>
			</g>
			<g>
				<path style="fill:#A6D406;" d="M175.437,231.714c0.366,0.809,0.53,1.275,0.53,1.275s-0.114,0.191-0.337,0.544
					c-8.571-0.72-19.846-1.141-31.964-1.365c-0.698-0.012-1.4-0.024-2.105-0.037c-8.548-0.139-17.457-0.188-26.086-0.177
					c-0.769,0.001-1.534,0.002-2.298,0.003c-16.616,0.038-31.973,0.28-41.421,0.462c-0.869-0.925-1.32-1.455-1.32-1.455
					c0.175-0.11,0.349-0.219,0.523-0.327c11.624-0.228,33.036-0.563,54.654-0.462c0.785,0.003,1.567,0.008,2.351,0.011l0.001-0.001
					c10.266,0.064,20.5,0.228,29.674,0.554c0.732,0.026,1.456,0.052,2.172,0.08C165.578,231.045,170.877,231.337,175.437,231.714z"
					/>
			</g>
			<g>
				<path style="fill:#A6D406;" d="M115.751,231.606l-0.276,0.349l-16.799,21.182c-0.537-0.294-1.066-0.59-1.588-0.89l16.09-20.289
					l1.166-1.47L115.751,231.606z"/>
			</g>
			<g>
				<path style="fill:#A6D406;" d="M128.224,230.497l-1.382,1.151l-1.229-1.473l-15.409-18.465c0.627-0.199,1.249-0.388,1.866-0.57
					l15.893,19.046l0.001-0.001L128.224,230.497z"/>
			</g>
			<g>
				<path style="fill:#A6D406;" d="M143.941,231.735l-0.275,0.433l-19.328,30.418c-0.431-0.075-0.865-0.158-1.299-0.249
					c-0.198-0.041-0.396-0.083-0.593-0.127l19.116-30.079l0.864-1.36L143.941,231.735z"/>
			</g>
			<g>
				<path style="fill:#A6D406;" d="M145.93,208.667l13.881,22.152l0.097,0.155l-1.524,0.954l-0.745-1.189l-14.112-22.519
					C144.346,208.353,145.147,208.502,145.93,208.667z"/>
			</g>
		</g>
		<g>
			<g>
				<path style="fill:#7D9F21;" d="M184.979,164.261c0.134,1.725,0.215,3.364,0.266,4.871c0.16,4.821-0.029,8.267-0.041,8.544
					c-0.001,0.008-0.005,0.012-0.005,0.012l-33.047,26.087c0,0-0.005,0.004-0.013,0.003c-0.272-0.053-3.668-0.669-8.32-1.944
					c-1.454-0.4-3.03-0.86-4.676-1.39c-8.826-2.848-19.552-7.632-23.285-14.775c-1.151-2.194-1.633-3.964-1.639-5.403
					c0.004-0.74,0.122-1.391,0.349-1.972c1.924-4.896,11.232-4.35,12.837-5.87c2.167-2.053-10.824-10.705-22.762-14.696
					c-11.162-3.734-22.611-11.46-19.351-20.075c0.12-0.31,0.251-0.615,0.408-0.925c0.138-0.287,0.296-0.568,0.476-0.859
					c5.704-9.317,16.988-0.687,19.207-4.85c2.179-4.093-35.264-30.535-19.265-43.276c0.244-0.2,0.517-0.401,0.794-0.597
					c0.255-0.224,0.509-0.439,0.765-0.634c16.103-12.6,33.128,29.959,37.615,28.79c4.565-1.192-1.209-14.172,9.177-17.557
					c0.324-0.108,0.634-0.196,0.946-0.263c0.338-0.081,0.665-0.138,0.995-0.182c9.136-1.17,13.993,11.76,15.038,23.48
					c1.111,12.539,6.51,27.183,9.005,25.556c1.856-1.212,3.481-10.389,8.69-11.123c0.617-0.085,1.278-0.049,1.999,0.119
					c1.399,0.339,3.008,1.219,4.875,2.848C182.095,143.471,184.258,155.015,184.979,164.261z"/>
			</g>
			<g>
				<path style="fill:#A6D406;" d="M87.677,86.511l81.781,103.601l-1.562,1.233L86.115,87.744c0.246-0.203,0.52-0.402,0.797-0.596
					C87.166,86.923,87.418,86.707,87.677,86.511z"/>
			</g>
			<g>
				<path style="fill:#A6D406;" d="M134.342,146.023l-0.185,0.975l-0.191,0.979l-0.36-0.071l-48.621-9.292l0.304-0.961
					c0.121-0.307,0.251-0.613,0.411-0.925l46.023,8.794l1.492,0.284L134.342,146.023z"/>
			</g>
			<g>
				<path style="fill:#A6D406;" d="M167.86,188.484l-0.185,0.975l-0.191,0.979l-0.36-0.071l-52.906-10.104
					c0.002-0.736,0.121-1.388,0.35-1.966l50.674,9.686l1.492,0.284L167.86,188.484z"/>
			</g>
			<g>
				<path style="fill:#A6D406;" d="M137.413,97.227l-2.25,49.44l-0.016,0.376l-0.991-0.046l-0.996-0.042l0.055-1.15l0.066-1.522
					l2.132-46.798c0.34-0.083,0.668-0.138,0.995-0.185L137.413,97.227z"/>
			</g>
			<g>
				<path style="fill:#A6D406;" d="M171.136,135.332l-2.455,53.797l-0.016,0.376l-0.991-0.046l-0.996-0.042l0.055-1.151l0.066-1.522
					l2.344-51.529C169.758,135.127,170.419,135.163,171.136,135.332z"/>
			</g>
		</g>
		<g>
			<g>
				<path style="fill:#7D9F21;" d="M333.207,376.529c-1.708-0.374-3.319-0.775-4.792-1.165c-4.713-1.253-7.992-2.443-8.257-2.535
					c-0.008-0.004-0.01-0.009-0.01-0.009l-15.593-39.6c0,0-0.002-0.006,0.001-0.013c0.131-0.248,1.719-3.354,4.312-7.484
					c0.812-1.29,1.717-2.681,2.711-4.119c5.334-7.709,13.097-16.692,21.099-18.219c2.459-0.474,4.313-0.423,5.707-0.008
					c0.715,0.22,1.311,0.525,1.806,0.913c4.177,3.292,0.929,12.14,1.931,14.137c1.354,2.697,13.521-7.348,20.871-17.735
					c6.873-9.711,17.695-18.534,25.079-12.863c0.265,0.206,0.522,0.423,0.776,0.665c0.238,0.217,0.463,0.452,0.692,0.711
					c7.35,8.241-4.298,16.641-0.917,20.004c3.325,3.304,39.85-25.208,47.507-6.003c0.122,0.294,0.237,0.617,0.345,0.943
					c0.142,0.312,0.276,0.621,0.39,0.925c7.49,19.264-38.669,23.309-38.848,27.993c-0.179,4.766,14.068,2.969,14.31,14.009
					c0.009,0.345,0.004,0.671-0.022,0.992c-0.021,0.351-0.061,0.684-0.114,1.016c-1.536,9.183-15.467,10.107-27.115,7.694
					c-12.459-2.587-28.208-1.64-27.362,1.25c0.631,2.15,9.037,6.403,8.226,11.658c-0.098,0.622-0.326,1.251-0.699,1.9
					c-0.737,1.255-2.058,2.555-4.18,3.886C354.169,379.811,342.365,378.532,333.207,376.529z"/>
			</g>
			<g>
				<path style="fill:#A6D406;" d="M436.869,305.076l-124.146,48.883l-0.737-1.871l124.146-48.883
					c0.124,0.297,0.237,0.62,0.344,0.945C436.619,304.461,436.755,304.768,436.869,305.076z"/>
			</g>
			<g>
				<path style="fill:#A6D406;" d="M365.647,332.853l-0.889-0.464l-0.892-0.47l0.174-0.328l23.194-44.338l0.841,0.575
					c0.262,0.207,0.519,0.422,0.775,0.668l-21.953,41.97l-0.711,1.361L365.647,332.853z"/>
			</g>
			<g>
				<path style="fill:#A6D406;" d="M314.766,352.888l-0.889-0.464l-0.892-0.471l0.174-0.328l25.231-48.248
					c0.712,0.217,1.308,0.523,1.8,0.912l-24.174,46.21l-0.71,1.361L314.766,352.888z"/>
			</g>
			<g>
				<path style="fill:#A6D406;" d="M411.971,350.078l-47.188-16.618l-0.359-0.125l0.334-0.946l0.331-0.952l1.097,0.389l1.454,0.508
					l44.666,15.732c-0.019,0.354-0.061,0.687-0.111,1.017L411.971,350.078z"/>
			</g>
			<g>
				<path style="fill:#A6D406;" d="M365.246,371.583l-51.344-18.089l-0.359-0.125l0.334-0.945l0.331-0.952l1.097,0.389l1.454,0.509
					l49.182,17.319C365.847,370.309,365.619,370.939,365.246,371.583z"/>
			</g>
		</g>
		<g>
			<g>
				<path style="fill:#7D9F21;" d="M200.764,349.169c0.173,1.245,0.21,1.945,0.21,1.945s-0.231,0.213-0.676,0.604
					c-5.568,4.87-44.579,37.131-81.328,18.943c-0.555-0.275-1.112-0.561-1.666-0.859c-0.253-0.135-0.505-0.272-0.755-0.41
					c-11.231-6.155-20.766-13.901-28.665-21.845c-0.611-0.614-1.212-1.228-1.802-1.845C71.302,330.31,62.617,314.59,59.6,308.619
					c-0.81-1.605-1.211-2.507-1.211-2.507c0.281-0.079,0.562-0.158,0.842-0.235c24.191-6.74,44.26-9.704,60.905-10.006
					c0.932-0.018,1.852-0.027,2.763-0.027c18.794-0.012,33.07,3.442,43.912,8.626c1.06,0.508,2.089,1.032,3.087,1.569
					C194.84,319.532,199.819,342.397,200.764,349.169z"/>
			</g>
			<g>
				<path style="fill:#A6D406;" d="M200.764,349.169c0.173,1.245,0.21,1.945,0.21,1.945s-0.231,0.213-0.676,0.604
					c-11.358-4.41-26.51-9.495-42.886-14.652c-0.943-0.296-1.893-0.594-2.846-0.893c-11.56-3.612-23.645-7.244-35.375-10.684
					c-1.045-0.307-2.086-0.612-3.124-0.915c-22.593-6.6-43.558-12.42-56.468-15.955c-0.81-1.605-1.211-2.507-1.211-2.507
					c0.281-0.079,0.562-0.158,0.842-0.235c15.886,4.344,45.115,12.462,74.449,21.253c1.065,0.318,2.127,0.638,3.19,0.956l0.002,0
					c13.924,4.196,27.764,8.517,40.099,12.633c0.984,0.328,1.957,0.654,2.92,0.979C187.637,344.313,194.719,346.832,200.764,349.169
					z"/>
			</g>
			<g>
				<path style="fill:#A6D406;" d="M119.706,325.127l-0.515,0.363l-31.307,22.057c-0.611-0.614-1.212-1.228-1.802-1.845
					l29.985-21.128l2.173-1.53L119.706,325.127z"/>
			</g>
			<g>
				<path style="fill:#A6D406;" d="M137.099,328.613l-2.339,1.011l-1.08-2.494l-13.545-31.259c0.932-0.018,1.852-0.027,2.763-0.027
					l13.971,32.242l0.002,0L137.099,328.613z"/>
			</g>
			<g>
				<path style="fill:#A6D406;" d="M157.959,336.589l-0.547,0.478l-38.442,33.595c-0.555-0.275-1.112-0.561-1.666-0.859
					c-0.253-0.135-0.505-0.272-0.755-0.41l38.017-33.219l1.719-1.502L157.959,336.589z"/>
			</g>
			<g>
				<path style="fill:#A6D406;" d="M169.897,306.04l9.993,35.658l0.069,0.249l-2.452,0.685l-0.537-1.913l-10.16-36.249
					C167.871,304.978,168.899,305.502,169.897,306.04z"/>
			</g>
		</g>
		<g>
			<g>
				<path style="fill:#7D9F21;" d="M407.935,131.747c-0.167,0.801-0.341,1.606-0.524,2.415c-2.361,10.468-6.151,21.61-12.124,32.324
					c-0.134,0.238-0.269,0.477-0.403,0.715c-0.299,0.525-0.602,1.041-0.915,1.547c-20.542,33.469-68.606,27.18-75.618,26.064
					c-0.56-0.09-0.858-0.147-0.858-0.147s-0.327-0.587-0.819-1.685c-2.684-5.973-10.293-27.058,3.068-50.709
					c0.533-0.945,1.099-1.893,1.702-2.843c6.154-9.729,15.975-19.805,31.227-29.37c0.74-0.463,1.491-0.926,2.256-1.387
					c13.657-8.232,31.444-16.053,54.502-22.908c0.266-0.08,0.533-0.158,0.802-0.238c0,0,0.132,0.934,0.292,2.651
					C411.119,94.557,412.082,111.733,407.935,131.747z"/>
			</g>
			<g>
				<path style="fill:#A6D406;" d="M410.524,88.176c-8.673,9.444-22.712,24.843-37.675,41.707c-0.688,0.775-1.378,1.554-2.069,2.334
					c-7.761,8.767-15.715,17.869-23.25,26.687c-0.62,0.727-1.239,1.455-1.855,2.177c-10.656,12.522-20.357,24.365-27.323,33.731
					c-0.56-0.09-0.858-0.147-0.858-0.147s-0.327-0.587-0.819-1.685c3.712-4.974,8.174-10.625,13.126-16.692
					c0.613-0.754,1.238-1.515,1.869-2.283c7.91-9.621,16.935-20.178,26.093-30.674c0.699-0.802,1.401-1.603,2.102-2.405
					c19.317-22.073,38.894-43.549,49.565-55.163c0.266-0.08,0.533-0.158,0.802-0.238C410.232,85.526,410.364,86.46,410.524,88.176z"
					/>
			</g>
			<g>
				<path style="fill:#A6D406;" d="M407.935,131.747c-0.167,0.801-0.341,1.606-0.524,2.415l-36.631-1.945l-0.603-0.032l0.128-2.437
					l2.544,0.134L407.935,131.747z"/>
			</g>
			<g>
				<path style="fill:#A6D406;" d="M360.258,143.503l-2.412,0.37l-0.084-0.543l-5.091-33.273c0.74-0.463,1.491-0.926,2.256-1.387
					l4.937,32.255L360.258,143.503z"/>
			</g>
			<g>
				<path style="fill:#A6D406;" d="M395.288,166.486c-0.134,0.238-0.269,0.477-0.403,0.715c-0.299,0.525-0.602,1.041-0.915,1.547
					l-48.295-7.667l-0.688-0.109l0.382-2.411l2.161,0.343L395.288,166.486z"/>
			</g>
			<g>
				<path style="fill:#A6D406;" d="M332.209,175.831l-2.34,0.692l-0.069-0.235l-10.058-34.017c0.533-0.945,1.099-1.893,1.702-2.843
					l10.225,34.577L332.209,175.831z"/>
			</g>
		</g>
		<g>
			<g>
				<path style="fill:#A6D406;" d="M223.815,150.473c-28.499-35.463-42.167-62.662-39.604-79.037c0.105-0.671-0.349-1.3-1.014-1.406
					c-0.665-0.106-1.289,0.352-1.394,1.022c-1.584,10.117,2.498,23.874,12.131,40.889c7.058,12.468,17.101,26.712,29.881,42.42
					V150.473z"/>
			</g>
			<path style="fill:#7D9F21;" d="M186.599,96.051c0,0-8.266,6.005-18.161-9.071C168.438,86.98,183.674,81.409,186.599,96.051z"/>
			<path style="fill:#7D9F21;" d="M191.302,104.089c0,0-6.402-7.993,7.966-18.8C199.268,85.289,205.629,100.327,191.302,104.089z"/>
			<path style="fill:#7D9F21;" d="M182.907,78.945c0,0-8.677-5.382,1.298-20.404C184.205,58.541,195.171,70.579,182.907,78.945z"/>
			<path style="fill:#7D9F21;" d="M200.27,120.555c0,0-5.766,8.472-20.132-2.338C180.138,118.217,192.608,107.775,200.27,120.555z"
				/>
			<path style="fill:#7D9F21;" d="M206.29,128.012c0,0-7.676-6.755,4.623-19.907C210.913,108.105,219.756,121.808,206.29,128.012z"
				/>
			<path style="fill:#7D9F21;" d="M213.528,139.048c0,0-5.605,8.58-20.172-1.952C193.355,137.096,205.628,126.417,213.528,139.048z"
				/>
		</g>
		<g>
			<g>
				<path style="fill:#A6D406;" d="M427.605,168.331c-0.613-0.281-1.335-0.007-1.613,0.612
					c-6.835,15.199-33.38,30.426-77.036,44.293l-0.976,2.884c19.118-5.997,35.171-12.288,47.805-18.751
					c17.323-8.861,28.232-18.083,32.427-27.41C428.489,169.341,428.218,168.612,427.605,168.331z"/>
			</g>
			<path style="fill:#7D9F21;" d="M410.574,188.171c0,0,3.628,9.603,20.112,2.507C430.686,190.679,421.001,177.569,410.574,188.171z
				"/>
			<path style="fill:#7D9F21;" d="M402.263,192.273c0,0,9.705-3.12,3.601-20.121C405.864,172.153,392.351,181.179,402.263,192.273z"
				/>
			<path style="fill:#7D9F21;" d="M422.985,175.937c0,0,10.18,0.323,10.043-17.758C433.028,158.178,417.306,162.144,422.985,175.937
				z"/>
			<path style="fill:#7D9F21;" d="M385.796,201.045c0,0,0.195,10.275,18.086,9.223C403.882,210.268,399.163,194.626,385.796,201.045
				z"/>
			<path style="fill:#7D9F21;" d="M376.702,203.93c0,0,10.093-1.38,6.995-19.189C383.697,184.74,368.841,191.274,376.702,203.93z"/>
			<path style="fill:#7D9F21;" d="M364.64,209.128c0,0,0.002,10.276,17.909,9.567C382.549,218.695,378.125,202.966,364.64,209.128z"
				/>
		</g>
	</g>
	<g>
		<ellipse style="fill:#E4D6BC;" cx="254.437" cy="427.217" rx="126.223" ry="8.022"/>
		<g>
			<path style="fill:#002E49;" d="M325.762,427.237h-30.854V169.706h71.075l-23.187,241.863
				C341.943,420.457,334.572,427.237,325.762,427.237z"/>
			<path style="fill:#1D5B79;" d="M372.911,169.703H136.063c-2.6,0-4.708-2.108-4.708-4.708v-11.568c0-2.6,2.108-4.708,4.708-4.708
				h236.849c2.6,0,4.708,2.108,4.708,4.708v11.568C377.619,167.595,375.511,169.703,372.911,169.703z"/>
			<path style="fill:#0D415D;" d="M341.293,169.705l-0.582,6.538l-22.314,250.995h-138.03c-9.018,0-16.545-6.887-17.343-15.868
				l-19.535-219.728l-1.95-21.936H341.293z"/>
			<polygon style="fill:#002E49;" points="341.293,169.705 340.398,178.442 143.011,184.989 141.539,169.705 			"/>
			<g>
				<path style="fill:#FFFBF4;" d="M192.179,288.206l-7.442-4.242l24.039-0.372l12.429,21.285l-7.442-4.019l-9.952,17.545
					c-2.44,4.301-3.841,9.131-3.957,14.075c-0.004,0.188-0.007,0.378-0.008,0.569L186.3,309.64
					C186.3,309.64,180.42,299.518,192.179,288.206z"/>
				<path style="fill:#FFFBF4;" d="M258.697,345.496l-0.141,8.565l-11.885-20.898l12.686-21.133l0.055,8.458l20.169,0.29
					c4.945,0.071,9.853-1.023,14.243-3.299c0.167-0.087,0.335-0.175,0.503-0.266l-14.009,23.131
					C280.317,340.345,274.27,350.367,258.697,345.496z"/>
				<path style="fill:#ECE4DA;" d="M275.978,259.454l6.645-3.862l-11.753,20.973l-24.648,0.056l7.213-4.417l-9.755-16.612
					c0,0,3.643-9.384,13.713-11.335C267.769,242.246,275.978,259.454,275.978,259.454z"/>
				<path style="fill:#ECE4DA;" d="M237.057,320.245v24.893h-21.769c0,0-9.529-0.22-11.052-11.05
					c-1.265-8.997,3.796-13.843,3.796-13.843H237.057z"/>
				<path style="fill:#ECE4DA;" d="M264.628,292.047l21.419-12.684l11.092,18.731c0,0,2.677,9.298-6.043,15.899
					c-7.123,5.392-11.678,3.029-11.678,3.029L264.628,292.047z"/>
				<path style="fill:#FFFBF4;" d="M202.971,268.409l11.201-19.611c0,0,3.572-5.916,9.154-5.916h26.309
					c0,0-5.433,4.13-10.903,12.764c-5.567,8.787-14.066,24.969-14.066,24.969L202.971,268.409z"/>
			</g>
		</g>
	</g>
	<g>
		
			<ellipse transform="matrix(1 5.648016e-004 -5.648016e-004 1 0.2501 -0.2208)" style="fill:#E4D6BC;" cx="391.123" cy="442.734" rx="53.647" ry="6.555"/>
		<g>
			<g>
				<g>
					<path style="fill:#0D415D;" d="M378.149,259.149c0,0-11.145,10.897-16.284,14.527c0,0-3.198-0.738-9.866-2.631v9.992
						c4.274,1.704,8.56,3.099,11.307,3.188c0,0,9.966-5.985,17.448-13.862L378.149,259.149z"/>
				</g>
			</g>
			<g>
				<g>
					<g>
						<g>
							<path style="fill:#002E49;" d="M379.875,436.125l-7.629-0.004l-4.824-58.657l5.489-53.797l20.617-1.919l-12.398,61.321
								C384.614,397.242,381.685,415.376,379.875,436.125z"/>
						</g>
					</g>
				</g>
				<path style="fill:#95465B;" d="M380.096,435.666c0,0,0.46,0.642,0.459,1.967c-0.001,1.326-0.133,5.899-0.133,5.899
					l-22.329-0.013c0,0-0.08-3.477,2.75-5.332c2.829-1.855,7.175-0.034,11.331-2.948
					C372.173,435.239,373.285,436.255,380.096,435.666z"/>
			</g>
			<g>
				<g>
					<g>
						<path style="fill:#0D415D;" d="M421.654,435.706c-1.466-15.899-8.379-47.898-12.795-54.8l-0.009-59.985l-20.15,4.764
							l5.989,55.341l19.242,54.237C416.228,436.55,418.897,436.308,421.654,435.706z"/>
					</g>
				</g>
				<path style="fill:#95465B;" d="M421.654,435.706c0,0,0.509,0.677,0.508,2.003c-0.001,1.326-0.003,5.847-0.003,5.847
					l-22.309-0.013c0,0-0.08-3.478,2.75-5.332c2.829-1.855,7.175-0.034,11.331-2.949
					C413.931,435.263,414.843,436.296,421.654,435.706z"/>
			</g>
			<g>
				<g>
					<g>
						<path style="fill:#1D5B79;" d="M370.519,325.577c0.982,1.656,4.339,2.923,7.225,3.626c0.199,0.049,0.395,0.095,0.588,0.138
							c0.503,0.112,0.983,0.205,1.428,0.28c4.737,0.793,9.505,1.146,14.3,1.141c0.889-0.001,1.831-0.064,2.799-0.185
							c0.195-0.023,0.391-0.051,0.588-0.078c4.989-0.731,10.536-2.901,13.317-5.686l-4.049-18.161l7.746-45.154l-10.364-3.553
							l-0.556-0.191l-2.326-0.798l-2.651-0.909l-10.159,1.739l-1.784,0.237l-0.629,0.084l-7.843,1.046L370.519,325.577z"/>
					</g>
				</g>
			</g>
			<g>
				<g>
					<path style="fill:#002E49;" d="M381.112,225.626c0,0-2.762,1.355-2.431,6.035c0.331,4.68,2.033,5.392,2.033,5.392
						S384.676,227.288,381.112,225.626z"/>
				</g>
				<g>
					<path style="fill:#FBB28F;" d="M390.11,248.444l-0.413,5.812l-0.19,3.484c3.01,2.883,8.847-0.634,8.847-0.634l1.668-8.48
						c-1.406-1.233-5.479-0.875-7.945-0.518C390.915,248.277,390.11,248.444,390.11,248.444z"/>
				</g>
				<g>
					<path style="fill:#ED867A;" d="M390.11,248.444l-0.413,5.812c4.018-0.404,7.977-5.396,7.977-5.396l-5.597-0.751
						C390.915,248.277,390.11,248.444,390.11,248.444z"/>
				</g>
				<g>
					<path style="fill:#002E49;" d="M381.329,228.016c0,0-5.856-3.69-3.379-8.569c2.477-4.879,9.484-0.283,16.581,1.003
						c10.705,1.94,13.103,6.353,12.085,12.16c-1.018,5.807-1.955,13.645-4.974,16.229c-3.019,2.583-4.302-1.776-5.205-5.604
						C395.533,239.406,388.509,227.144,381.329,228.016z"/>
				</g>
				<g>
					<g>
						<path style="fill:#FBB28F;" d="M380.133,232.914c-0.022,0.197-0.044,0.399-0.064,0.602c-0.351,3.641-0.289,8.128-0.131,11.791
							c0.168,3.887,3.515,6.871,7.396,6.59c4.674-0.339,10.47-1.019,13.249-2.377c0.845-0.412,1.408-0.887,1.578-1.435
							c0.397-1.278,0.75-3.045,1.056-4.978c0.931-5.858,1.438-13.252,1.438-13.252c-4.609-7.5-20.21-6.792-23.168-2.112
							C380.809,228.815,380.384,230.679,380.133,232.914z"/>
					</g>
				</g>
				<g>
					<path style="fill:#002E49;" d="M403.931,237.721c0,0-2.236-1.898-4.651,0.674l-1.597-0.204c0,0,0.51-3.27-0.039-5.148
						c-0.549-1.879-3.612-2.223-3.801-4.38c0,0-7.585,1.952-12.513-0.646c-4.928-2.598,11.688-9.245,18.637-4.092
						C406.915,229.077,405.803,232.283,403.931,237.721z"/>
				</g>
				<g>
					<path style="fill:#002E49;" d="M400.583,249.52c0.845-0.412,1.408-0.887,1.578-1.435c0.397-1.278,0.75-3.045,1.056-4.978
						l-4.382,2.255C398.835,245.362,398.416,248.223,400.583,249.52z"/>
				</g>
				<g>
					<g>
						<path style="fill:#FBB28F;" d="M399.28,238.395c0,0,2.823-2.651,4.651-0.674c2.014,2.179-0.531,8.372-5.096,7.642
							L399.28,238.395z"/>
					</g>
				</g>
			</g>
			<g>
				<path style="fill:#FFFBF4;" d="M363.879,311.194l-25.053,4.375c-2.226,0.388-4.344-1.103-4.727-3.329l-3.479-20.219
					l-1.239-7.193l-1.997-11.418l-2.561-14.64c-0.604-3.443,1.698-6.722,5.141-7.324l0.219-0.04
					c2.297-0.402,3.831-2.585,3.429-4.882L329.7,224.18l12.029-2.104l3.911,22.344c0.402,2.295,2.587,3.828,4.882,3.427
					c1.724-0.3,3.403,0.121,4.729,1.053c1.327,0.93,2.295,2.366,2.597,4.09l2.518,14.391l2.043,11.668l1.329,7.611l3.46,19.81
					C367.586,308.69,366.1,310.804,363.879,311.194z"/>
				<polygon style="fill:#A6D406;" points="363.672,286.055 330.62,292.021 329.382,284.828 327.384,273.41 360.367,267.38 
					362.409,279.048 				"/>
				<polygon style="fill:#7D9F21;" points="329.391,284.883 327.806,275.823 360.819,269.648 362.387,278.923 363.196,283.677 
					330.205,289.611 				"/>
				<path style="fill:#ECE4DA;" d="M341.729,222.074l0.917,5.24c-3.926,1.188-7.931,1.898-12.025,2.132l-0.922-5.267
					L341.729,222.074z"/>
				<path style="fill:#A6D406;" d="M343.16,223.7c-4.705,1.525-9.529,2.369-14.472,2.533l-0.893-5.103l14.472-2.533L343.16,223.7z"
					/>
			</g>
			<g>
				<g>
					<path style="fill:#0D415D;" d="M414.46,261.498c0,0,4.458,7.29,0.623,15.586c-3.834,8.296-22.616,20.093-22.616,20.093
						l-35.724,3.99l-1.495-6.323c0,0,11.578-2.933,15.271-3.676c3.693-0.743,12.541-3.13,18.812-3.914
						C389.33,287.252,406.209,267.292,414.46,261.498z"/>
				</g>
				<path style="fill:#FBB28F;" d="M355.248,294.843c0,0-2.178-2.015-4.078-2.596c-1.901-0.581-3.895-0.106-5.794-0.037
					c-1.899,0.069-1.317,1.542,0.422,1.931c1.74,0.389,3.618,0.555,3.214,1.111c-0.404,0.556-8.164,1.62-9.6,3.15
					c-1.436,1.53,5.331,0.319,5.331,0.319s-6.364,1.747-6.65,2.964c-0.285,1.216,6.389-0.68,6.389-0.68s-4.847,1.441-4.459,2.482
					c0.279,0.745,4.226-0.295,6.149-0.854c0,0-4.739,1.541-4.051,2.158c0.877,0.787,9.747-0.47,14.62-3.623
					C356.586,298.999,355.847,297.018,355.248,294.843z"/>
			</g>
		</g>
	</g>
	<g>
		<ellipse style="fill:#E4D6BC;" cx="109.598" cy="443.01" rx="78.978" ry="5.926"/>
		<g>
			<g>
				<path style="fill:#FFFBF4;" d="M175.471,149.497l0.218,38.733c0.014,2.463-10.169,4.517-22.744,4.588
					c-12.579,0.071-22.784-1.869-22.798-4.332l-0.218-38.733L175.471,149.497z"/>
				
					<ellipse transform="matrix(1 -0.0056 0.0056 1 -0.8403 0.8624)" style="fill:#ECE4DA;" cx="152.701" cy="149.624" rx="22.772" ry="4.46"/>
				
					<ellipse transform="matrix(1 -0.0056 0.0056 1 -0.8405 0.8626)" style="fill:#D2C3B3;" cx="152.701" cy="149.624" rx="10.562" ry="1.567"/>
			</g>
			<g>
				<g>
					<g>
						<path style="fill:#002E49;" d="M115.67,337.649h7.605l4.842-58.465l-5.441-53.626l-20.549-1.924l12.323,61.129
							C110.968,298.89,113.878,316.967,115.67,337.649z"/>
					</g>
				</g>
				<path style="fill:#7C4550;" d="M115.45,337.191c0,0-0.459,0.639-0.459,1.961c0,1.321,0.13,5.88,0.13,5.88h22.256
					c0,0,0.081-3.466-2.738-5.317c-2.819-1.85-7.152-0.038-11.293-2.945C123.347,336.771,122.239,337.784,115.45,337.191z"/>
			</g>
			<g>
				<g>
					<g>
						<path style="fill:#0D415D;" d="M78.689,337.208c1.471-15.847,8.379-47.739,12.785-54.616l0.043-59.791l20.082,4.76
							l-6.001,55.159l-19.21,54.051C84.097,338.052,81.437,337.81,78.689,337.208z"/>
					</g>
				</g>
				<path style="fill:#7C4550;" d="M78.689,337.208c0,0-0.507,0.674-0.507,1.996c0,1.321,0,5.828,0,5.828h22.236
					c0,0,0.081-3.466-2.738-5.317c-2.819-1.85-7.152-0.038-11.293-2.945C86.387,336.771,85.478,337.801,78.689,337.208z"/>
			</g>
			<g>
				<g>
					<g>
						<path style="fill:#1D5B79;" d="M124.204,188.189l0.159,41.432c-20.023,7.175-34.254-2.33-34.254-2.33l6.185-34.242
							l-7.658-28.706l5.181-2.607l1.049-0.53h0.003l2.277-1.146l7.193-3.623l14.453,1.87l2.006,0.259l1.187,0.153l1.523,0.197
							c-0.7,4.711-0.201,10.446,0.389,16.259c1.075,2.324,1.962,4.91,2.012,7.213c0.047,2.05-0.627,3.635-1.54,4.833
							c-0.003,0.003-0.003,0.003-0.003,0.003c-0.059,0.077-0.118,0.15-0.177,0.224L124.204,188.189z"/>
					</g>
				</g>
				<g>
					<g>
						<path style="fill:#0D415D;" d="M124.186,187.45l0.018,0.74c-1.915,0.521-6.221,1.493-11.696,1.493
							c-2.618,0-5.505-0.221-8.521-0.822c-0.242-0.047-0.395-0.28-0.348-0.518c0.047-0.242,0.28-0.395,0.518-0.348
							c9.664,1.92,17.911-0.103,20.205-0.769C124.303,187.303,124.244,187.376,124.186,187.45z"/>
					</g>
				</g>
			</g>
			<g>
				<g>
					<g>
						<path style="fill:#002E49;" d="M118.989,128.374c0,0,2.486,2.313,2.786,5.197c0.301,2.884-1.022,5.05-1.022,5.05
							L118.989,128.374z"/>
					</g>
				</g>
				<path style="fill:#002E49;" d="M118.002,131.088c-4.862,2.571-14.13,1.975-14.13,1.975c-7.23,1.962-3.835,18.177-3.835,18.177
					c-2.345-0.363-3.965-2.234-5.081-4.544c-0.54,4.15-1.354,8.051-2.584,10.647c-3.974,8.399-12.438,3.631-12.438,3.631
					c10.364,0.234,8.251-10.931,1.86-18.915c-6.391-7.981-1.07-21.14,5.988-21.489c6.952-0.345,8.172,6.137,8.205,6.33
					c0.002,0.002,0.002,0.005,0.002,0.005c0.372,0.811,0.505,1.451,0.505,1.451c2.263-2.698,13.579-7.519,18.724-6.315
					C120.237,123.212,122.026,128.96,118.002,131.088z"/>
				<g>
					<g>
						<path style="fill:#FFFFFF;" d="M96.493,128.355c0,0-3.055,2.656-3.971,7.748c-0.638,0.126-1.234,0.189-1.791,0.195
							c0.214-1.591,1.261-7.413,5.256-9.393C96.36,127.717,96.493,128.355,96.493,128.355z"/>
					</g>
				</g>
				<g>
					<g>
						<path style="fill:#FBB28F;" d="M111.027,152.058l0.1,5.422l0.046,2.485c-2.939,2.532-8.233-0.258-8.233-0.258l-0.985-8.665
							c1.367-1.077,4.984,0.155,7.26,0.607C110.286,151.863,111.027,152.058,111.027,152.058z"/>
					</g>
				</g>
				<g>
					<g>
						<path style="fill:#ED867A;" d="M111.027,152.058l0.1,5.422c-3.715-0.572-7.151-5.406-7.151-5.406l5.239-0.425
							C110.286,151.863,111.027,152.058,111.027,152.058z"/>
					</g>
				</g>
				<g>
					<g>
						<path style="fill:#FBB28F;" d="M117.086,153.211c-6.358,3.455-14.386-0.433-16.878-1.82c-0.498-0.278-0.775-0.456-0.775-0.456
							s-0.344-1.303-0.694-3.224c-0.373-2.04-0.758-4.779-0.75-7.384c0.01-3.116,0.579-6.043,2.398-7.36l18.779-3.514
							c0,0,0.065,0.23,0.171,0.644C120.21,133.515,123.888,149.515,117.086,153.211z"/>
					</g>
				</g>
				<g>
					<g>
						<path style="fill:#002E49;" d="M100.208,151.391c-0.498-0.278-0.775-0.456-0.775-0.456s-0.344-1.303-0.694-3.224l1.546,0.505
							C100.284,148.216,101.485,149.988,100.208,151.391z"/>
					</g>
				</g>
				<g>
					<g>
						<g>
							<path style="fill:#FBB28F;" d="M100.953,141.715c0,0-2.518-2.769-4.342-0.615c-2.01,2.374,0.38,8.866,5.127,7.893
								L100.953,141.715z"/>
						</g>
					</g>
				</g>
				<g>
					<g>
						<path style="fill:#002E49;" d="M119.336,130.098c-1.836,0.826-9.817,4.204-15.714,3.498c0,0,0.067,0.482,0.14,1.233l0,0
							c0,0,0.002,0.014,0.004,0.04c0.005,0.028,0.009,0.068,0.015,0.119c0.113,0.992,0.704,6.432,0.313,9.472
							c-0.431,3.358,0.353,6.069,1.729,6.195c0,0-1.084,0.555-2.18-1.458c-1.099-2.014-1.889-6.418-1.889-6.418
							c-0.73-0.91-1.902-2.723-3.767-2.486c0.008-3.115,0.578-6.007,2.398-7.323l18.778-3.515
							C119.164,129.453,119.229,129.681,119.336,130.098z"/>
					</g>
				</g>
			</g>
			<path style="fill:#0D415D;" d="M130.001,163.598c-2.901-2.384-6.495-4.68-6.495-4.68c-1.481,5.725-0.2,9.453-0.2,9.453
				s3.318,3.808,6.695,5.213V163.598z"/>
			<g>
				<g>
					<path style="fill:#0D415D;" d="M94.542,163.955c6.215,3.598,17.898,11.92,23.43,15.17c0,0,5.259-0.941,10.842-1.821
						c5.414-0.854,21.035-4.777,21.035-4.777l2.292,6.26c0,0-27.244,12.49-38.145,10.718c-5.353-0.87-10.324-5.586-14.473-7.966
						c-4.419-2.535-8.349-5.84-11.662-9.709c-0.342-0.4-0.568-0.667-0.587-0.701C84.592,166.46,89.882,161.257,94.542,163.955z"/>
				</g>
				<path style="fill:#FBB28F;" d="M149.849,172.527c0,0,0.532-2.61,1.615-4.277s2.917-2.583,4.417-3.75s2,0.335,0.917,1.751
					c-1.083,1.416-2.417,2.749-1.75,2.916c0.667,0.167,7.297-4.003,9.381-3.753c2.083,0.25-3.881,3.669-3.881,3.669s6-2.749,7-2
					c1,0.749-5.333,3.583-5.333,3.583s4.641-2.009,5.011-0.962c0.265,0.75-3.428,2.488-5.261,3.295c0,0,4.622-1.863,4.491-0.948
					c-0.167,1.167-8.553,6.021-14.314,6.735L149.849,172.527z"/>
			</g>
		</g>
		<g>
			<g>
				<g>
					<g>
						<path style="fill:#FFFBF4;" d="M106.912,348.014l-23.878,93.367c-0.21,0.82,0.285,1.485,1.106,1.485
							c0.82,0,1.655-0.665,1.865-1.485l23.878-93.367H106.912z"/>
					</g>
				</g>
				<g>
					<g>
						<path style="fill:#FFFBF4;" d="M67.893,348.014l-23.878,93.367c-0.21,0.82,0.285,1.485,1.106,1.485
							c0.821,0,1.656-0.665,1.865-1.485l23.878-93.367H67.893z"/>
					</g>
				</g>
				<g>
					<g>
						<path style="fill:#FFFBF4;" d="M63.903,369.569h38.982c0.82,0,1.655-0.665,1.865-1.486c0.21-0.821-0.285-1.486-1.106-1.486
							H64.663c-0.82,0-1.656,0.665-1.865,1.486C62.588,368.904,63.083,369.569,63.903,369.569z"/>
					</g>
					<g>
						<path style="fill:#FFFBF4;" d="M59.142,388.187h38.981c0.821,0,1.656-0.665,1.866-1.485c0.21-0.821-0.285-1.486-1.106-1.486
							H59.902c-0.82,0-1.655,0.665-1.865,1.486C57.827,387.522,58.321,388.187,59.142,388.187z"/>
					</g>
					<g>
						<path style="fill:#FFFBF4;" d="M54.381,406.754h38.981c0.821,0,1.656-0.687,1.865-1.534c0.21-0.847-0.285-1.534-1.105-1.534
							H55.14c-0.82,0-1.655,0.687-1.865,1.534C53.065,406.068,53.56,406.754,54.381,406.754z"/>
					</g>
					<g>
						<path style="fill:#FFFBF4;" d="M49.619,425.423H88.6c0.821,0,1.656-0.665,1.865-1.486c0.21-0.82-0.285-1.485-1.105-1.485
							H50.379c-0.82,0-1.656,0.665-1.865,1.485C48.304,424.758,48.798,425.423,49.619,425.423z"/>
					</g>
				</g>
			</g>
			<g>
				<g>
					<g>
						<path style="fill:#FFFBF4;" d="M107.645,348.014h-2.971l23.878,93.367c0.21,0.82,1.045,1.485,1.865,1.485
							c0.821,0,1.316-0.665,1.106-1.485L107.645,348.014z"/>
					</g>
				</g>
				<g>
					<g>
						<g>
							<path style="fill:#FFFBF4;" d="M170.542,441.381l-23.878-93.367h-2.971l23.878,93.367c0.209,0.82,1.045,1.485,1.865,1.485
								S170.752,442.201,170.542,441.381z"/>
						</g>
					</g>
				</g>
				<g>
					<path style="fill:#FFFBF4;" d="M147.559,350.951H65.931c-0.472,0-0.855-0.383-0.855-0.855v-4.207
						c0-0.473,0.383-0.855,0.855-0.855h81.627c0.473,0,0.856,0.383,0.856,0.856v4.207
						C148.414,350.568,148.031,350.951,147.559,350.951z"/>
					<g>
						<path style="fill:#FFFBF4;" d="M150.654,369.569h-38.981c-0.821,0-1.656-0.665-1.865-1.486
							c-0.21-0.821,0.285-1.486,1.105-1.486h38.981c0.82,0,1.655,0.665,1.865,1.486
							C151.969,368.904,151.474,369.569,150.654,369.569z"/>
					</g>
					<g>
						<path style="fill:#FFFBF4;" d="M155.415,388.187h-38.981c-0.82,0-1.656-0.665-1.866-1.485
							c-0.21-0.821,0.285-1.486,1.106-1.486h38.981c0.82,0,1.656,0.665,1.865,1.486
							C156.731,387.522,156.235,388.187,155.415,388.187z"/>
					</g>
					<g>
						<path style="fill:#FFFBF4;" d="M160.176,406.754h-38.981c-0.821,0-1.656-0.687-1.866-1.534
							c-0.21-0.847,0.285-1.534,1.106-1.534h38.981c0.821,0,1.656,0.687,1.866,1.534
							C161.492,406.068,160.997,406.754,160.176,406.754z"/>
					</g>
					<g>
						<path style="fill:#FFFBF4;" d="M164.938,425.423h-38.981c-0.821,0-1.656-0.665-1.866-1.486
							c-0.21-0.82,0.285-1.485,1.106-1.485h38.981c0.821,0,1.656,0.665,1.866,1.485
							C166.253,424.758,165.758,425.423,164.938,425.423z"/>
					</g>
				</g>
			</g>
		</g>
	</g>
</g>
<g id="DESIGNED_BY_FREEPIK">
</g>
</svg>
